<svg xmlns="http://www.w3.org/2000/svg" version="1.0" preserveAspectRatio="xMidYMid meet" viewBox="5.14 572.27 1337.86 463.73">
<metadata>
Created by potrace 1.10, written by Peter Selinger 2001-2011
</metadata>
<g transform="translate(0.000000,1350.000000) scale(0.100000,-0.100000)" fill="#EAF2EF" stroke="none">
<path d="M7310 7768 c-14 -7 -26 -23 -28 -35 -2 -12 -10 -27 -18 -33 -8 -7 -14 -27 -14 -44 -1 -17 -7 -49 -15 -71 -8 -22 -15 -72 -15 -112 0 -39 -4 -75 -10 -78 -5 -3 -10 -28 -10 -54 0 -35 -5 -53 -20 -66 -16 -14 -20 -31 -20 -76 0 -73 -7 -94 -26 -78 -11 9 -18 8 -32 -5 -14 -12 -38 -16 -95 -16 -102 0 -117 -14 -117 -104 0 -44 -5 -67 -15 -76 -8 -7 -15 -25 -15 -41 0 -21 -7 -32 -24 -41 -15 -6 -26 -21 -28 -36 -2 -18 -11 -28 -28 -32 -14 -3 -26 -14 -28 -25 -8 -56 -13 -64 -40 -67 l-27 -3 -5 -325 -5 -325 -58 -3 c-80 -4 -87 4 -87 99 0 43 -4 80 -9 83 -4 3 -11 23 -15 45 -3 22 -18 53 -32 70 -25 31 -27 31 -119 31 -86 0 -96 -2 -124 -26 -17 -14 -31 -31 -31 -38 0 -7 -7 -26 -15 -43 -8 -17 -18 -59 -21 -94 -4 -35 -13 -76 -20 -91 -8 -15 -14 -47 -14 -72 0 -41 -26 -106 -42 -106 -11 0 -21 109 -15 170 7 64 -2 80 -43 80 -16 0 -37 11 -53 28 l-27 28 0 475 c0 356 -3 478 -12 487 -7 7 -24 12 -40 12 -17 0 -31 7 -38 19 -6 11 -10 88 -10 177 0 141 -2 160 -19 178 -24 26 -33 148 -13 168 6 6 12 20 12 29 0 20 -44 29 -147 29 -58 0 -74 -3 -82 -17 -10 -17 -12 -17 -26 1 -14 19 -45 16 -45 -4 0 -16 -38 -12 -48 6 -6 10 -20 14 -43 12 -28 -2 -33 -7 -30 -23 2 -11 5 -47 8 -81 4 -59 4 -61 -36 -101 l-41 -41 0 -465 c0 -434 -1 -467 -17 -475 -10 -5 -29 -8 -43 -7 -14 2 -33 4 -42 4 -11 1 -19 13 -23 35 -6 27 -13 35 -35 40 -26 5 -29 10 -32 48 -3 36 -7 43 -28 48 -19 4 -26 13 -28 37 -2 17 -10 37 -18 43 -11 10 -14 40 -14 131 l0 118 -72 3 c-71 3 -73 4 -76 31 -3 27 -3 27 -83 27 -69 0 -85 3 -112 24 -41 31 -101 49 -129 41 -13 -4 -36 -20 -53 -36 -23 -21 -41 -29 -80 -31 -46 -3 -50 -5 -53 -30 -3 -26 -5 -27 -75 -30 l-72 -3 -3 -238 -2 -238 -148 3 -147 3 -3 45 c-5 100 -8 105 -52 106 -38 1 -45 -4 -41 -33 1 -7 -6 -24 -15 -38 -9 -14 -14 -32 -10 -40 15 -40 -23 -67 -104 -75 l-55 -5 -6 -203 c-3 -111 -9 -205 -12 -208 -12 -12 -43 7 -59 36 l-18 31 -253 -3 -254 -3 -34 -32 c-18 -18 -40 -33 -50 -33 -22 0 -29 -20 -29 -79 0 -26 -5 -52 -12 -59 -21 -21 -148 -15 -197 8 l-42 21 2 129 1 130 -31 35 c-18 21 -33 52 -37 75 -8 47 -39 84 -63 74 -19 -8 -23 -8 -118 -6 l-73 2 0 39 c0 22 -4 42 -8 45 -4 2 -89 6 -187 7 -109 1 -187 7 -198 13 -24 15 -37 -6 -37 -60 0 -50 -9 -54 -120 -54 -82 0 -100 -9 -100 -49 0 -46 -9 -50 -148 -57 -131 -7 -132 -7 -132 -31 0 -23 -16 -35 -45 -34 -5 1 -12 36 -15 78 l-5 78 -47 5 c-26 3 -56 14 -68 25 -17 16 -41 20 -141 23 -116 4 -120 4 -126 -17 -4 -15 -13 -21 -32 -21 -14 1 -64 -3 -111 -7 l-85 -8 -3 -88 c-1 -48 -6 -205 -10 -350 l-7 -262 -47 -1 c-26 0 -66 -9 -88 -19 -32 -15 -45 -16 -65 -7 -23 11 -25 17 -25 76 0 58 -3 67 -27 86 -21 16 -36 20 -58 15 -76 -15 -155 -17 -159 -4 -3 8 -7 169 -9 357 -3 281 -7 346 -18 353 -21 13 -62 10 -83 -6 -16 -12 -18 -20 -10 -47 6 -20 7 -82 3 -158 -4 -69 -8 -205 -8 -303 l-1 -177 -27 -11 c-15 -5 -36 -8 -48 -5 -45 11 -45 7 -43 -315 l3 -304 6685 0 6685 0 3 343 2 342 -24 11 c-21 10 -28 8 -54 -22 -28 -31 -33 -33 -107 -35 -73 -2 -79 -4 -87 -25 l-9 -24 -17 21 c-33 41 -59 48 -97 24 -28 -17 -44 -20 -76 -15 -34 6 -44 3 -64 -15 -13 -12 -28 -19 -33 -16 -6 3 -18 -1 -26 -10 -13 -12 -16 -41 -16 -147 0 -89 -3 -127 -10 -117 -5 8 -10 34 -10 58 0 68 -17 48 -24 -29 -3 -39 -9 -75 -12 -80 -7 -12 -101 -11 -125 1 -15 8 -19 21 -19 58 0 37 -5 52 -22 67 -53 47 -72 55 -137 55 -40 0 -70 5 -80 14 -9 7 -37 16 -63 18 -40 5 -48 3 -53 -13 -4 -11 -13 -19 -20 -19 -12 0 -15 33 -17 178 l-3 177 -55 5 c-45 4 -55 9 -58 25 -5 26 -41 54 -69 55 -54 0 -66 22 -37 65 13 20 14 25 3 25 -77 3 -192 0 -197 -4 -3 -3 4 -16 16 -29 12 -13 22 -27 22 -31 0 -16 -46 -45 -81 -51 -31 -5 -38 -11 -48 -44 -6 -21 -11 -105 -11 -189 0 -182 7 -174 -147 -170 l-108 3 -3 48 c-2 33 -7 47 -18 47 -10 0 -14 -13 -14 -52 0 -76 -5 -79 -91 -76 l-74 3 -6 270 c-4 149 -12 293 -17 320 -25 119 -30 137 -41 148 -6 6 -11 21 -11 34 0 13 -3 23 -7 24 -5 1 -53 2 -108 4 -55 2 -113 8 -129 14 -23 9 -33 9 -51 -3 -13 -9 -52 -16 -90 -18 l-67 -3 -14 -40 c-7 -22 -14 -47 -14 -55 0 -8 -10 -21 -21 -28 -18 -12 -20 -20 -15 -54 5 -28 2 -47 -8 -64 -12 -17 -17 -71 -22 -233 -6 -161 -10 -214 -21 -223 -24 -19 -32 3 -35 97 -3 85 -4 90 -26 93 -12 2 -34 15 -48 29 -24 24 -30 25 -87 19 -33 -3 -72 -14 -86 -24 -17 -11 -53 -19 -101 -22 l-75 -5 -6 -64 c-7 -72 -15 -81 -77 -81 -66 0 -82 13 -82 64 0 27 -6 48 -15 56 -13 11 -15 62 -15 349 0 249 -3 340 -12 349 -7 7 -29 12 -50 12 -26 0 -40 6 -47 19 -6 10 -8 21 -5 24 3 3 1 14 -5 25 -7 14 -24 21 -58 24 -33 3 -62 15 -92 36 -39 29 -51 32 -114 32 -60 0 -75 -4 -113 -30 -31 -21 -46 -26 -49 -17 -3 6 -6 167 -7 357 l-3 345 -105 7 c-96 6 -107 9 -125 32 -15 19 -30 26 -55 26 -53 0 -61 10 -68 86 -7 68 -7 68 -42 75 -19 4 -41 17 -49 28 -16 25 -56 28 -65 5 -5 -12 -16 -15 -44 -12 -20 3 -48 1 -61 -4 -19 -7 -29 -4 -46 12 -26 25 -100 28 -112 5 -7 -11 -38 -18 -113 -25 -58 -5 -123 -13 -145 -17 l-40 -8 -6 -470 c-3 -259 -7 -584 -8 -723 -1 -260 -13 -326 -24 -135 -8 135 -18 165 -81 231 -53 54 -81 65 -90 35 -3 -10 -26 -40 -50 -67 -49 -55 -47 -43 -62 -389 -8 -163 -13 -174 -64 -143 -17 9 -50 16 -83 16 -31 0 -58 4 -61 9 -4 5 -9 45 -13 88 -4 49 -11 81 -19 86 -12 7 -14 99 -14 509 0 449 -2 503 -16 519 -20 23 -33 77 -44 194 -15 147 -21 179 -40 200 -10 11 -24 37 -31 58 -7 21 -19 43 -26 48 -20 17 -264 23 -293 7z"/>
<path d="M9960 4670 c-150 -16 -305 -89 -428 -204 -37 -34 -122 -140 -122 -152 0 -4 -6 -15 -14 -23 -20 -24 -67 -147 -83 -221 -28 -124 -15 -307 30 -430 65 -177 211 -340 381 -424 52 -25 102 -46 112 -46 11 0 41 -7 68 -15 65 -20 247 -20 312 0 27 8 57 15 68 15 34 0 201 90 259 140 60 51 139 139 160 177 7 12 23 43 36 70 13 26 27 55 32 65 4 9 17 54 28 101 25 103 28 257 6 340 -8 32 -15 64 -15 72 0 14 -58 140 -83 180 -96 156 -262 283 -442 338 -62 19 -205 27 -305 17z m305 -309 c87 -42 177 -132 222 -222 40 -78 67 -206 58 -269 -33 -228 -147 -374 -343 -441 -102 -35 -271 -20 -363 33 -97 55 -183 142 -214 218 -4 8 -14 33 -23 55 -13 30 -17 71 -17 170 0 111 3 139 23 190 39 105 143 220 232 261 14 6 41 19 60 27 28 13 63 16 165 14 125 -2 133 -3 200 -36z"/>
<path d="M12817 4670 c-32 -4 -64 -13 -70 -19 -6 -6 -17 -11 -24 -11 -21 0 -116 -74 -151 -116 -50 -60 -74 -139 -70 -225 9 -159 88 -266 354 -484 27 -22 86 -77 131 -122 l83 -82 0 -59 c0 -63 -14 -88 -68 -124 -38 -25 -139 -24 -189 2 -43 22 -88 68 -122 123 -12 20 -27 37 -32 37 -5 0 -56 -28 -114 -62 -108 -65 -126 -88 -90 -118 8 -7 15 -19 15 -27 0 -20 148 -166 190 -187 112 -57 274 -72 385 -37 131 42 212 108 267 219 31 64 32 72 32 177 -1 104 -3 114 -35 180 -35 71 -127 175 -233 260 -27 22 -54 45 -60 50 -6 6 -47 42 -91 80 -165 142 -185 181 -126 247 28 31 33 33 98 33 78 -1 102 -12 173 -84 43 -45 65 -52 85 -28 6 7 43 41 83 76 39 34 72 71 72 81 0 35 -161 165 -245 198 -59 23 -168 33 -248 22z"/>
<path d="M357 4633 c-4 -3 -7 -22 -7 -42 0 -20 -5 -52 -10 -72 -6 -20 -14 -67 -19 -105 -6 -38 -15 -96 -21 -129 -20 -106 -38 -208 -55 -310 -9 -55 -23 -131 -31 -170 -8 -38 -14 -79 -14 -90 0 -11 -6 -51 -14 -90 -8 -38 -22 -115 -31 -170 -9 -55 -23 -134 -32 -177 -23 -112 -27 -109 124 -106 l127 3 13 60 c7 33 17 89 22 125 5 36 15 92 21 125 6 33 18 94 25 135 7 41 19 104 26 140 7 36 15 90 19 120 20 157 50 235 63 163 2 -16 10 -44 17 -63 7 -19 18 -51 25 -70 7 -19 18 -51 24 -70 7 -19 16 -48 21 -65 5 -16 14 -46 21 -65 6 -19 17 -51 24 -70 7 -19 18 -51 24 -70 7 -19 16 -48 21 -65 5 -16 14 -46 21 -65 6 -19 17 -51 24 -70 7 -19 18 -51 24 -70 7 -19 17 -51 21 -70 5 -19 17 -40 26 -47 19 -14 211 -18 229 -5 11 7 31 57 45 107 9 33 27 85 43 125 5 14 13 39 18 55 4 17 38 116 74 220 37 105 70 204 75 220 8 29 24 77 41 123 19 51 48 16 49 -58 0 -19 7 -60 15 -90 8 -30 15 -68 15 -85 0 -16 6 -61 14 -100 8 -38 22 -115 31 -170 9 -55 23 -131 31 -170 8 -38 14 -87 14 -107 0 -67 22 -78 149 -78 76 0 112 4 117 12 13 21 5 87 -37 308 -7 36 -15 90 -19 120 -4 30 -12 84 -19 120 -30 162 -35 188 -41 240 -4 30 -12 84 -19 120 -13 69 -29 161 -56 325 -9 55 -22 127 -28 160 l-12 60 -133 0 -133 0 -18 -45 c-24 -61 -41 -109 -51 -145 -5 -16 -14 -46 -21 -65 -6 -19 -17 -51 -24 -70 -7 -19 -18 -51 -24 -70 -7 -19 -16 -48 -21 -65 -5 -16 -14 -46 -21 -65 -6 -19 -17 -51 -24 -70 -7 -19 -18 -51 -24 -70 -7 -19 -16 -48 -21 -65 -8 -28 -15 -51 -45 -135 -44 -122 -63 -143 -76 -84 -4 16 -13 45 -19 64 -7 19 -18 51 -25 70 -7 19 -18 51 -24 70 -7 19 -16 49 -21 65 -5 17 -14 46 -21 65 -6 19 -17 51 -24 70 -7 19 -18 51 -24 70 -7 19 -16 49 -21 65 -5 17 -14 46 -21 65 -6 19 -17 51 -24 70 -7 19 -18 51 -24 70 -7 19 -16 49 -21 65 -8 29 -23 75 -41 123 -8 21 -13 22 -142 22 -74 0 -137 -3 -140 -7z"/>
<path d="M2037 4634 c-4 -4 -7 -328 -7 -720 0 -634 2 -714 16 -728 21 -22 235 -23 253 -2 8 9 10 209 9 732 l-3 719 -131 3 c-71 1 -133 -1 -137 -4z"/>
<path d="M2632 3908 l3 -733 130 0 130 0 5 464 c3 297 9 465 15 467 9 3 75 -77 75 -90 0 -3 20 -34 45 -70 25 -37 45 -68 45 -70 0 -2 34 -54 75 -116 41 -62 75 -113 75 -115 0 -1 47 -74 105 -160 58 -87 105 -159 105 -161 0 -2 23 -37 51 -79 l52 -76 126 3 126 3 3 733 2 732 -135 0 -135 0 0 -464 c0 -276 -4 -467 -9 -471 -8 -4 -147 191 -171 240 -3 5 -32 51 -64 100 -33 50 -84 128 -115 175 -31 47 -58 90 -61 95 -3 6 -36 57 -75 115 -38 58 -72 110 -75 115 -3 6 -18 29 -34 53 l-29 42 -133 0 -134 0 2 -732z"/>
<path d="M4147 4633 c-4 -3 -7 -331 -7 -729 l0 -722 23 -6 c29 -8 205 -8 234 0 l23 6 2 457 c2 335 6 456 14 456 10 0 84 -98 84 -110 0 -2 34 -53 75 -114 41 -62 75 -114 75 -116 0 -2 34 -54 75 -116 41 -61 75 -112 75 -114 0 -1 34 -53 75 -115 41 -62 75 -114 75 -115 0 -8 73 -111 83 -117 16 -10 229 -10 244 0 10 6 13 169 13 727 1 395 -3 722 -8 727 -5 5 -67 7 -138 6 l-129 -3 -3 -462 c-1 -255 -6 -463 -10 -463 -4 0 -26 28 -49 63 -22 34 -71 109 -109 167 -38 58 -71 109 -73 115 -2 5 -24 38 -48 73 -23 35 -43 66 -43 69 0 3 -13 22 -30 43 -16 21 -30 40 -30 44 0 3 -34 55 -75 117 -41 61 -75 112 -75 114 0 1 -18 30 -41 64 l-41 61 -127 0 c-70 0 -131 -3 -134 -7z"/>
<path d="M5660 4628 c-3 -273 2 -1442 6 -1449 9 -14 757 -12 772 3 18 18 17 242 -1 257 -9 7 -98 12 -258 13 l-244 3 -3 188 c-2 146 0 187 10 187 7 1 119 0 249 0 193 -1 238 2 248 14 8 9 11 52 9 132 l-3 119 -255 5 -255 5 -3 132 -3 133 258 2 258 3 0 130 0 130 -392 3 c-311 2 -393 0 -393 -10z"/>
<path d="M7147 4600 c-10 -22 -24 -59 -33 -82 -9 -24 -22 -56 -29 -73 -7 -16 -20 -49 -29 -72 -9 -24 -23 -62 -32 -85 -9 -24 -22 -59 -29 -78 -19 -52 -46 -121 -60 -155 -7 -16 -20 -48 -28 -70 -15 -40 -30 -82 -62 -165 -9 -25 -23 -58 -31 -73 -8 -16 -14 -35 -14 -42 0 -7 -6 -26 -14 -42 -8 -15 -22 -48 -31 -73 -26 -69 -46 -121 -62 -165 -8 -22 -20 -49 -25 -59 -6 -11 -14 -31 -18 -45 -5 -14 -18 -51 -29 -80 -16 -42 -18 -57 -8 -63 15 -10 248 -10 262 0 6 4 19 27 29 52 20 48 34 82 60 143 9 21 16 44 16 52 0 8 9 24 20 35 19 19 33 20 303 20 155 0 287 -4 292 -8 15 -11 45 -71 45 -91 0 -9 7 -26 15 -37 8 -10 15 -28 15 -40 0 -11 7 -29 15 -40 8 -10 15 -27 15 -36 0 -10 9 -27 20 -38 18 -18 33 -20 145 -20 141 0 151 6 123 64 -15 30 -35 79 -64 159 -8 20 -21 56 -30 80 -9 23 -23 60 -31 82 -8 22 -21 54 -28 70 -12 30 -30 76 -60 155 -8 22 -22 58 -30 80 -8 22 -22 59 -31 83 -9 23 -22 56 -29 72 -13 31 -35 87 -59 153 -8 20 -21 56 -30 80 -9 23 -23 61 -32 85 -9 23 -22 56 -29 72 -12 29 -28 70 -61 158 -29 77 -18 72 -171 75 l-140 3 -16 -41z m178 -407 c26 -55 46 -105 91 -225 8 -24 22 -56 30 -71 8 -16 14 -36 14 -45 0 -9 7 -26 15 -36 8 -11 15 -30 15 -43 l0 -23 -186 0 -186 0 7 36 c3 20 13 52 22 73 41 98 42 99 89 224 28 73 42 111 48 130 8 27 21 20 41 -20z"/>
<path d="M8227 4633 c-4 -3 -7 -327 -7 -719 0 -634 2 -714 16 -728 12 -13 39 -16 127 -16 62 0 118 4 125 9 10 6 13 70 12 298 0 160 2 298 6 307 5 13 23 16 108 16 210 0 357 74 437 222 33 62 33 64 34 193 0 144 -10 182 -70 260 -68 89 -107 114 -235 146 -63 16 -113 19 -311 19 -130 0 -239 -3 -242 -7z m508 -282 c51 -23 70 -46 84 -97 18 -68 -15 -136 -81 -167 -50 -24 -223 -25 -232 -1 -8 21 -8 269 1 277 3 4 47 7 97 7 67 0 102 -5 131 -19z"/>
<path d="M11092 3908 l3 -733 305 -3 c168 -1 320 0 338 3 l33 6 -3 127 -3 127 -200 5 -200 5 -3 598 -2 597 -135 0 -135 0 2 -732z"/>
<path d="M11967 4634 c-4 -4 -7 -330 -7 -724 0 -543 3 -719 12 -728 18 -18 242 -16 257 2 8 9 10 209 9 732 l-3 719 -131 3 c-71 1 -133 -1 -137 -4z"/>
</g>
</svg>
